HIERARCHY
ROOT Hips
{
	OFFSET -0.001795 -0.223333 0.028219
	CHANNELS 6 Xposition Yposition Zposition Zrotation Yrotation Xrotation 
	JOINT LeftUpLeg
	{
		OFFSET 0.069520 -0.091406 -0.006815
		CHANNELS 3 Zrotation Yrotation Xrotation
		JOINT LeftLeg
		{
			OFFSET 0.034277 -0.375199 -0.004496
			CHANNELS 3 Zrotation Yrotation Xrotation
			JOINT LeftFoot
			{
				OFFSET -0.013596 -0.397961 -0.043693
				CHANNELS 3 Zrotation Yrotation Xrotation
				JOINT LeftToe
				{
					OFFSET 0.026358 -0.055791 0.119288
					CHANNELS 3 Zrotation Yrotation Xrotation
					End Site
					{
						OFFSET 0.000000 0.000000 0.000000
					}
				}
			}
		}
	}
	JOINT RightUpLeg
	{
		OFFSET -0.067670 -0.090522 -0.004320
		CHANNELS 3 Zrotation Yrotation Xrotation
		JOINT RightLeg
		{
			OFFSET -0.038290 -0.382569 -0.008850
			CHANNELS 3 Zrotation Yrotation Xrotation
			JOINT RightFoot
			{
				OFFSET 0.015774 -0.398415 -0.042312
				CHANNELS 3 Zrotation Yrotation Xrotation
				JOINT RightToe
				{
					OFFSET -0.025372 -0.048144 0.123348
					CHANNELS 3 Zrotation Yrotation Xrotation
					End Site
					{
						OFFSET 0.000000 0.000000 0.000000
					}
				}
			}
		}
	}
	JOINT Spine
	{
		OFFSET -0.002533 0.108963 -0.026696
		CHANNELS 3 Zrotation Yrotation Xrotation
		JOINT Spine1
		{
			OFFSET 0.005487 0.135180 0.001092
			CHANNELS 3 Zrotation Yrotation Xrotation
			JOINT Spine2
			{
				OFFSET 0.001457 0.052922 0.025425
				CHANNELS 3 Zrotation Yrotation Xrotation
				JOINT Neck
				{
					OFFSET -0.002778 0.213870 -0.042857
					CHANNELS 3 Zrotation Yrotation Xrotation
					JOINT Head
					{
						OFFSET 0.005152 0.064970 0.051349
						CHANNELS 3 Zrotation Yrotation Xrotation
						End Site
						{
							OFFSET 0.000000 0.000000 0.000000
						}
					}
				}
				JOINT LeftShoulder
				{
					OFFSET 0.078845 0.121749 -0.034090
					CHANNELS 3 Zrotation Yrotation Xrotation
					JOINT LeftArm
					{
						OFFSET 0.090977 0.030469 -0.008868
						CHANNELS 3 Zrotation Yrotation Xrotation
						JOINT LeftForeArm
						{
							OFFSET 0.259612 -0.012772 -0.027456
							CHANNELS 3 Zrotation Yrotation Xrotation
							JOINT LeftHand
							{
								OFFSET 0.249234 0.008986 -0.001171
								CHANNELS 3 Zrotation Yrotation Xrotation
								End Site
								{
									OFFSET 0.000000 0.000000 0.000000
								}
							}
						}
					}
				}
				JOINT RightShoulder
				{
					OFFSET -0.081759 0.118833 -0.038615
					CHANNELS 3 Zrotation Yrotation Xrotation
					JOINT RightArm
					{
						OFFSET -0.096012 0.032551 -0.009143
						CHANNELS 3 Zrotation Yrotation Xrotation
						JOINT RightForeArm
						{
							OFFSET -0.253742 -0.013329 -0.021401
							CHANNELS 3 Zrotation Yrotation Xrotation
							JOINT RightHand
							{
								OFFSET -0.255298 0.007772 -0.005559
								CHANNELS 3 Zrotation Yrotation Xrotation
								End Site
								{
									OFFSET 0.000000 0.000000 0.000000
								}
							}
						}
					}
				}
			}
		}
	}
}
MOTION
Frames: 9
Frame Time: 0.050000
-0.351361 0.940180 1.174474 -0.243642 -25.289930 4.188446 -0.743185 0.032128 0.444006 0.128733 0.098145 -3.709447 3.935482 8.452006 6.700097 0.000000 0.000000 0.000000 -0.461761 0.239511 -2.629830 3.801583 -0.125610 1.329314 -4.537092 -13.422394 6.725434 0.000000 0.000000 0.000000 -1.652064 0.441318 -7.194399 0.451843 0.216078 5.094652 1.760894 -2.047228 4.309780 4.399656 -3.028063 -14.001672 0.000000 0.000000 0.000000 -31.534272 0.429482 2.830501 -46.347469 -6.309493 -4.956508 -6.314597 -41.068628 5.631549 0.000000 0.000000 0.000000 23.566704 10.242968 -1.660467 50.232349 -3.434406 -4.613820 14.567975 37.581471 4.201061 0.000000 0.000000 0.000000 
-0.350707 0.939994 1.173084 -0.266363 -25.112376 4.179619 -0.707057 0.022164 0.349080 0.141607 0.096760 -3.711166 3.865829 8.327629 6.615502 0.000000 0.000000 0.000000 -0.393643 0.249513 -2.791721 3.762573 -0.123438 1.500294 -4.641097 -13.597518 6.688626 0.000000 0.000000 0.000000 -1.750652 0.435429 -7.171813 0.438871 0.213738 5.053783 1.898143 -2.165364 4.314836 4.472556 -3.098146 -13.613639 0.000000 0.000000 0.000000 -31.541395 0.377646 2.898382 -46.234986 -6.315646 -4.960348 -6.262946 -43.827951 6.130495 0.000000 0.000000 0.000000 23.548822 10.348944 -1.620321 50.006269 -3.575534 -4.626520 17.139121 39.842832 5.278335 0.000000 0.000000 0.000000 
-0.350247 0.939998 1.171851 -0.251996 -25.024886 4.148352 -0.774448 0.026961 0.400735 0.266929 0.090008 -3.924166 3.823139 8.246219 6.682514 0.000000 0.000000 0.000000 -0.324590 0.258807 -2.940841 3.646908 -0.116106 1.674861 -4.696878 -13.698191 6.675722 0.000000 0.000000 0.000000 -1.873413 0.434052 -7.205221 0.548703 0.166750 5.194462 1.955344 -2.278045 4.134460 4.180715 -2.935893 -13.271228 0.000000 0.000000 0.000000 -31.718304 0.508013 2.833192 -46.109748 -6.340655 -4.950325 -6.606362 -46.864372 6.866845 0.000000 0.000000 0.000000 23.576657 10.372385 -1.640221 49.909879 -3.683355 -4.629052 19.966864 42.285990 6.582114 0.000000 0.000000 0.000000 
-0.349986 0.939816 1.170793 -0.245926 -24.936340 4.121828 -0.787915 0.010278 0.253372 0.321786 0.076616 -3.752665 3.804802 8.216298 6.579404 0.000000 0.000000 0.000000 -0.240949 0.259181 -2.993767 3.533170 -0.111179 1.706785 -4.756668 -13.783398 6.619805 0.000000 0.000000 0.000000 -1.994685 0.441868 -7.379469 0.502436 0.199500 5.352036 2.127158 -2.382763 4.132385 4.213187 -2.981804 -12.842458 0.000000 0.000000 0.000000 -31.642861 0.643110 2.755100 -46.201383 -6.274552 -4.979045 -7.097471 -50.422430 7.845215 0.000000 0.000000 0.000000 23.692916 10.411805 -1.669196 49.815157 -3.886022 -4.676989 23.299025 45.099333 8.303731 0.000000 0.000000 0.000000 
-0.349803 0.939749 1.169844 -0.255339 -25.023529 4.057008 -0.871472 0.015990 0.315618 0.495426 0.058618 -3.824554 3.851331 8.302224 6.600567 0.000000 0.000000 0.000000 -0.146325 0.252668 -2.975268 3.391879 -0.103760 1.690611 -4.724921 -13.707874 6.572728 0.000000 0.000000 0.000000 -2.045699 0.437918 -7.339673 0.472248 0.235798 5.576034 2.171177 -2.307208 3.903852 4.079788 -2.895804 -12.639037 0.000000 0.000000 0.000000 -31.847780 0.917178 2.526032 -46.096294 -5.959575 -5.068464 -7.960803 -54.609289 9.184233 0.000000 0.000000 0.000000 23.787454 10.422741 -1.666639 49.833813 -3.982821 -4.696152 26.712203 47.721127 10.239725 0.000000 0.000000 0.000000 
-0.349647 0.939664 1.168924 -0.253183 -24.940460 4.028850 -0.868184 0.002550 0.194824 0.531090 0.048168 -3.674304 3.830137 8.264510 6.535723 0.000000 0.000000 0.000000 -0.002467 0.247878 -3.001342 3.178216 -0.093621 1.699795 -4.773194 -13.783062 6.543364 0.000000 0.000000 0.000000 -2.061129 0.444942 -7.462369 0.387939 0.282034 5.644763 2.101002 -2.189532 3.885873 4.228653 -2.983102 -12.463215 0.000000 0.000000 0.000000 -31.826980 0.830773 2.514981 -46.174350 -5.867019 -5.086960 -8.829581 -58.877126 10.657800 0.000000 0.000000 0.000000 24.131118 10.595595 -1.580352 49.678810 -4.193078 -4.736405 30.766891 50.353490 12.737213 0.000000 0.000000 0.000000 
-0.349469 0.939626 1.167950 -0.248257 -24.986017 3.997710 -0.908380 -0.008707 0.100320 0.612572 0.033290 -3.554091 3.865321 8.328939 6.519587 0.000000 0.000000 0.000000 0.086974 0.250136 -3.075698 3.031414 -0.084105 1.773892 -4.766414 -13.757749 6.501794 0.000000 0.000000 0.000000 -2.199190 0.439195 -7.430522 0.347357 0.326733 5.911299 2.208416 -1.799540 3.642219 4.029011 -2.819625 -12.530864 0.000000 0.000000 0.000000 -32.089463 0.999354 2.227008 -45.856177 -5.734420 -5.064601 -11.366119 -63.362460 13.276614 0.000000 0.000000 0.000000 24.491049 10.646244 -1.488960 49.360430 -4.226589 -4.679713 34.570450 52.743988 15.363879 0.000000 0.000000 0.000000 
-0.349244 0.939800 1.166919 -0.276250 -24.758964 3.908531 -0.944172 -0.013560 0.059293 0.800029 0.006282 -3.443004 3.781134 8.173584 6.516414 0.000000 0.000000 0.000000 0.409902 0.231077 -3.028934 2.573821 -0.061249 1.799176 -4.853302 -13.943340 6.575407 0.000000 0.000000 0.000000 -2.200019 0.428638 -7.323723 0.277723 0.344947 5.799971 2.269873 -1.537530 3.821373 4.127136 -2.867610 -12.469287 0.000000 0.000000 0.000000 -32.274431 0.743046 2.301647 -45.607127 -6.082723 -4.925148 -13.556556 -66.735769 15.641446 0.000000 0.000000 0.000000 25.163774 10.986660 -1.302868 48.731290 -3.976639 -4.461834 37.683515 55.164858 17.942529 0.000000 0.000000 0.000000 
-0.349009 0.939873 1.165884 -0.346891 -24.748138 3.886104 -0.811076 -0.021360 -0.034271 0.716737 0.010347 -3.298175 3.780941 8.173364 6.492523 0.000000 0.000000 0.000000 0.524301 0.233237 -3.106724 2.523984 -0.055233 1.917763 -4.851323 -13.957391 6.607706 0.000000 0.000000 0.000000 -2.186846 0.420386 -7.202059 0.201900 0.401155 5.992827 2.355399 -1.252091 3.575182 3.947973 -2.717079 -12.616242 0.000000 0.000000 0.000000 -32.298982 0.538056 2.308387 -45.303609 -6.848340 -4.589147 -17.457765 -69.313077 19.142645 0.000000 0.000000 0.000000 25.304958 11.124999 -1.137079 48.565596 -3.477478 -4.234853 40.525170 57.397433 20.463617 0.000000 0.000000 0.000000 
